<?xml version="1.0" encoding="iso-8859-1"?>
<!-- Generator: Adobe Illustrator 16.0.0, SVG Export Plug-In . SVG Version: 6.00 Build 0)  -->
<!DOCTYPE svg PUBLIC "-//W3C//DTD SVG 1.1//EN" "http://www.w3.org/Graphics/SVG/1.1/DTD/svg11.dtd">
<svg version="1.1" id="Capa_1" xmlns="http://www.w3.org/2000/svg" xmlns:xlink="http://www.w3.org/1999/xlink" x="0px" y="0px"
	 width="535.416px" height="535.417px" viewBox="0 0 535.416 535.417" style="enable-background:new 0 0 535.416 535.417;"
	 xml:space="preserve">
<g>
	<path d="M500.364,167.693c-9.108-44.77-3.293-138.514-158.318-163.234C187.062-20.285,47.397,58.361,82.528,230.248
		c0,31.33-62.035,79.965-47.088,96.406c14.946,16.441,40.31,17.083,40.31,17.083s-16.488,31.33-9.073,39.982
		c7.409,8.653,28.025,4.951,28.025,4.951s-19.156,13.803-19.156,24.511c0,10.72,32.345,24.954,32.345,24.954
		s-5.932,59.285,42.64,55.174c48.57-4.109,56.75-17.83,56.75-17.83l14.41,59.938H409.68l-6.609-130.27
		C403.07,405.159,518.511,279.829,500.364,167.693z M427.219,238.235l-52.406,11.712l-23.262-20.925l8.232-20.925h67.436V238.235z
		 M424.79,57.24l38.769,41.08l-38.769,32.556h-21.696V109.95l12.401-15.881l-1.542-26.542L424.79,57.24z M403.094,38.626
		l-2.312,57.626l-20.144,30.232l-13.207-4.916l1.752-34.739l-33.91-10.603l29.076-43.848L403.094,38.626z M272.007,78.352
		l0.584-47.888l50.001,0.42l23.541,10.463l-15.109,23.845l-12.401,17.621l37.191,11.642v24.02l-7.742,21.684l-48.074,3.106v-8.512
		l-9.026-3.877l-8.799,27.184l-23.547,9.26l-31.879-22.875l13.563-24.032l19.384,6.586l3.287-11.63l-10.258-7.753l7.076-13.569
		l40.199,13.569l12.016-5.43L272.007,78.352z M182.181,95.984c2.324,0,47.292,0,47.292,0l-37.209-16.266l11.239-19.384
		l55.122-21.416V72.35l-37.688,0.502l25.579,15.39l-24.037,46.499h-44.957C177.533,134.752,179.851,95.984,182.181,95.984z
		 M178.549,144.444h32.941l42.627,29.298l-27.131,10.836L178.549,144.444z M240.321,213.036V186.68l15.507-8.524l38.762,16.278
		l24.008,7.753l3.106-12.027l-30.991-12.004l2.312-20.926l46.521,1.542l41.08-24.02l41.08,12.401l43.416-31.785l23.261,39.539
		l-55.817,3.865l-9.295,24.032l25.573,3.094l-17.831-8.524l3.877-12.401l49.861-1.646l-3.936,43.345l-46.031,0.257l-20.832-17.924
		l-29.473,11.245l-22.957-0.875l19.875-18.894l-44.572-2.032l15.893,19.863l-13.954,31.003h-74.412L240.321,213.036z
		 M358.172,287.069l-41.979-43.801c5.441,0,29.461-6.983,29.461-6.983l35.768,39.924L358.172,287.069z"/>
</g>
<g>
</g>
<g>
</g>
<g>
</g>
<g>
</g>
<g>
</g>
<g>
</g>
<g>
</g>
<g>
</g>
<g>
</g>
<g>
</g>
<g>
</g>
<g>
</g>
<g>
</g>
<g>
</g>
<g>
</g>
</svg>
