<svg xmlns="http://www.w3.org/2000/svg" viewBox="0 0 612.001 612.001"><path d="M542.346 235.523c-6.647-76.8-52.108-147.626-115.793-190.052-34.9-23.248-75.336-37.518-116.84-42.916C195.32-12.326 74.84 37.92 31.685 150.284c-37.1 96.597-.52 192.495 65.913 265.632 23.974 26.393 27.298 76.017 27.298 109.446v67.792c0 10.408 8.438 18.846 18.846 18.846h245.3c9.93 0 18.136-7.704 18.807-17.61.902-13.335 2.385-25.062 2.385-25.062 5.13-21.996 23.884-39.634 63.768-33.23 41.844 6.712 68.237-5.757 70.584-33.618.774-9.19 1.273-87.695 1.273-87.695 2-1.142 15.117-3.75 34.236-8.097 14.867-3.38 20.103-21.838 9.263-32.56-43.47-43.002-49.3-63.048-50.38-67.363-5.382-21.438 5.316-48.716 3.366-71.242zm-81.02-25.665c-6.038 7.65-12.917 9.146-16.555 9.346-1.197.066-2.032 1.206-1.705 2.36 1.868 6.582 3.768 24.71-28.687 31.77-30.438 6.615-48.844 30.29-60.863 42.313-9.233 9.225-21.723 13.495-34.183 16.3-12.73 2.863-25.34 5.37-35.384 14.414-10.577 9.528-25.495 61.986-28.027 71.105-.22.8-.95 1.352-1.782 1.352h-15.62c-.878 0-1.637-.614-1.818-1.473l-7.57-35.803c-.317-1.503-73.697 4.535-79.346-28.22-.198-1.148-1.36-1.86-2.456-1.465-7.056 2.546-29.692 8.81-41.91-10.122-8.663-13.423-6.362-25.955-5.155-30.282.25-.895-.2-1.827-1.055-2.195-6.225-2.677-28.72-15.29-25.67-56.784C76 199.024 98.625 184.2 95.462 179.055c-9.123-14.837-1.192-39.43 17.5-44.92.754-.222 1.29-.89 1.36-1.67l.79-8.72C117.704 93 158.1 73.518 185.563 86.3c1.06.492 2.318-.033 2.67-1.146 3.438-10.898 10.377-13.898 12.226-14.938 8.515-4.79 19.572-4.2 28.374-.586.712.292 1.523.114 2.048-.448 2.5-2.68 12.756-11.182 29.74-11.182 17.42 0 26.274 8.465 29.37 10.835.57.435 1.334.513 1.972.188 3.92-2.004 18.228-8.41 32.554-3.476 10.818 3.732 16.96 13.578 18.893 17.16.414.767 1.282 1.158 2.13.958 5.136-1.217 22.9-4.63 37.826 2.11 15.772 7.13 20.693 17.434 21.948 20.888.255.703.914 1.174 1.662 1.204 3.42.136 12.858.964 18.69 5.866 10.3 8.66 9.295 15.488 8.11 18.41-.362.89.037 1.91.9 2.333 4.704 2.307 17.892 9.927 26.073 26.112 11.26 22.296 6.755 41.443.577 49.27z"/></svg>