<svg xmlns="http://www.w3.org/2000/svg" width="535.416" height="535.417" viewBox="0 0 535.416 535.417"><path d="M500.364 167.693C491.256 122.923 497.07 29.18 342.046 4.46 187.062-20.286 47.396 58.36 82.528 230.247c0 31.33-62.035 79.965-47.088 96.406 14.946 16.44 40.31 17.083 40.31 17.083s-16.488 31.33-9.073 39.982c7.41 8.652 28.025 4.95 28.025 4.95s-19.156 13.803-19.156 24.51c0 10.72 32.345 24.955 32.345 24.955s-5.93 59.285 42.64 55.174c48.57-4.11 56.75-17.83 56.75-17.83l14.41 59.937h187.99l-6.61-130.27c0 .012 115.44-125.318 97.294-237.454zm-73.145 70.542l-52.407 11.712-23.262-20.925 8.233-20.925h67.436v30.138zM424.79 57.24l38.77 41.08-38.77 32.556h-21.696V109.95l12.4-15.88-1.54-26.543L424.79 57.24zm-21.696-18.614l-2.312 57.626-20.144 30.232-13.207-4.916 1.753-34.74-33.91-10.602 29.076-43.848 38.744 6.248zM272.007 78.352l.584-47.888 50.002.42 23.54 10.463-15.108 23.845-12.4 17.62 37.19 11.643v24.02l-7.742 21.684-48.074 3.105v-8.512l-9.026-3.877-8.8 27.184-23.546 9.26-31.88-22.875 13.564-24.032L259.694 127l3.287-11.63-10.257-7.754 7.076-13.57 40.198 13.57 12.016-5.43-40.007-23.834zM182.18 95.984h47.293l-37.21-16.266 11.24-19.384 55.122-21.416V72.35l-37.688.502 25.58 15.39-24.038 46.5H177.52c.01.01 2.33-38.758 4.66-38.758zm-3.63 48.46h32.94l42.627 29.298-27.13 10.836-48.438-40.134zm61.77 68.592V186.68l15.508-8.524 38.762 16.278 24.008 7.753 3.106-12.027-30.99-12.004 2.31-20.926 46.522 1.542 41.08-24.02 41.08 12.4 43.416-31.784 23.26 39.54-55.816 3.864-9.295 24.032 25.574 3.094-17.83-8.524 3.876-12.4 49.86-1.647-3.935 43.345-46.03.257-20.833-17.925-29.473 11.245-22.958-.875 19.875-18.894-44.572-2.03 15.893 19.862-13.954 31.003h-74.412l-24.03-16.28zm117.852 74.033l-41.98-43.802c5.442 0 29.462-6.983 29.462-6.983l35.768 39.924-23.25 10.86z"/></svg>