<svg xmlns="http://www.w3.org/2000/svg" height="47" viewBox="0 0 47 47" width="47"><svg height="46.345" viewBox="0 0 47 47" width="46.345"><path d="M30.995.385h-20.51c-2.86 0-7.46-1-8.146 2.755-.012.06.008.104.014.155C3.41 15.208 4.47 27.097 5.53 38.985c.467 5.244 7.492 5.434 11.577 6.567 6.082 1.688 10.206.397 16.22-1.27 4.637-1.286 7.096-1.958 7.547-7.015l1.938-21.7.848-9.486c.078-.866.746-3.636.003-4.447C41.2-1.055 34.183.385 30.995.385zM4.365 3.718l-.035-.38c-.005-.06-.01-.123-.018-.185-.01-.102.123-.652.594-.94.257-.157.584-.29.97-.4.53-.15.66.105.273.5l-1.052 1.07c-.388.394-.716.544-.734.335zm1.334 1.36l-.41.418c-.387.394-.393.39-.005-.005l.41-.418c.386-.394.388-.392.004.005zM40.857 15.73l-1.938 21.7c-.195 2.185-.285 4.016-2.828 4.72-3.486.968-6.974 1.935-10.46 2.9-.245.07-.49.12-.732.16-.41.064-1.034.005-1.39-.094-.357-.1-.722-.103-.816-.007-.094.094-.617.13-1.162.04-.275-.045-.55-.1-.824-.158-.54-.118-.857-.36-.716-.51.14-.15-.177-.393-.708-.54l-.38-.105c-.532-.147-1.08-.153-1.225-.015-.145.14-.48.188-.748.107-.163-.05-.326-.096-.49-.14-.362-.102-.857-.205-1.43-.322-.54-.11-.84-.34-.672-.51.17-.168.11-.358-.13-.426l-.435-.12c-.074-.022-.147-.047-.22-.076-.118-.048-.38.06-.587.25-.208.19-.81.24-1.34.08-.545-.165-1.078-.352-1.568-.568-.505-.224-.575-.776-.188-1.17.343-.348.687-.696 1.03-1.046.39-.393.694-.814.683-.94-.01-.127-.35.075-.754.45-.457.426-.915.85-1.374 1.273-.405.375-1.002.492-1.266.194-.264-.3-.072-.897.336-1.27l2.144-1.95c.408-.373.707-1.02.67-1.444-.04-.425-.397-.464-.802-.087-.768.714-1.534 1.43-2.3 2.146-.405.377-.773.238-.822-.312l-.21-2.355c-.05-.55-.02-1.062.063-1.14l.15-.143c.916-.946 1.827-1.884 2.738-2.82.385-.396.67-1.01.638-1.372-.032-.36-.376-.34-.767.05L7.7 32.484c-.393.39-.75.258-.798-.293l-.03-.327c-.048-.55.23-1.312.62-1.702.4-.395.8-.794 1.202-1.192l.352-.385c.194-.212.03-.074-.367.31-.424.407-.83.8-1.187 1.145-.397.383-.745.416-.775.075-.03-.34.264-.933.657-1.32L9.7 26.497c.395-.388.685-1.015.65-1.398-.034-.386-.373-.376-.758.02L7.25 27.54c-.385.395-.73.35-.77-.104-.04-.453.24-1.143.624-1.538l2.342-2.41c.385-.396.66-1.152.61-1.69s-.405-.656-.798-.268l-2.325 2.292c-.394.388-.75.256-.8-.294l-.08-.89c-.05-.55.235-1.306.634-1.688.773-.74 1.544-1.487 2.316-2.235.396-.385.702-.865.684-1.072-.02-.208-.35-.057-.738.335-.78.786-1.558 1.573-2.337 2.36-.388.393-.743.265-.792-.285l-.05-.568c-.05-.55.225-1.316.61-1.71l2.34-2.38c.386-.392.676-.99.645-1.333-.03-.344-.378-.31-.775.074-.67.647-1.45 1.404-2.318 2.244-.397.384-.403.377-.012-.013.798-.797 1.6-1.583 2.327-2.29.396-.385.39-.39-.01-.01-.755.72-1.526 1.468-2.314 2.234-.396.386-.753.294-.797-.205s.24-1.216.636-1.6l2.32-2.26c.397-.386.687-1.032.65-1.444-.036-.41-.382-.43-.774-.04l-2.33 2.31c-.39.39-.75.26-.798-.29l-.02-.23c-.05-.55.234-1.305.633-1.687l2.315-2.22c.398-.38.72-.707.72-.728-.004-.02-.328.274-.727.656-.748.72-1.52 1.46-2.313 2.22-.398.383-.754.324-.795-.133-.04-.457.25-1.137.648-1.52L7.944 6.91c.4-.383.717-.75.71-.82-.005-.068-.325.193-.713.587-.755.767-1.535 1.56-2.336 2.38-.386.394-.74.268-.79-.28l-.136-1.54c-.05-.55.225-1.315.61-1.71L7.767 3c.387-.393.776-.977.977-1.238.2-.26.88-.425 1.433-.438 4.3-.107 9.59.428 10.875.428h19.434c2.914 0 .522 12.326.374 13.978z"/><path d="M35.735 27.634l3.04-3.26c.375-.404.714-1.1.754-1.55s-.247-.504-.64-.116c-1.018 1.007-2.04 2.022-3.07 3.044-.393.39-.664.258-.573-.287.233-1.38.638-3.154.576-4.52-.024-.55-.07-1.087.056-1.206.124-.12.17-.21.097-.21-.073 0-.193.06-.27.132-.076.073-.33-.315-.818-.573-1.023-.54-2.72-.223-3.77-.223H22.703c-.35 0-.694-.057-.77-.13-.074-.07-.187-.08-.265-.004-.078.075-.388.135-.694.135h-.554c-.55 0-1.022-.078-1.418-.21-.524-.174-.56-.78-.167-1.168l1.69-1.667c.393-.388 1.16-.68 1.71-.643 3.382.234 9.612.872 12.508-.292.512-.206.908-.486.956-.486s.413-.305.816-.68l1.502-1.4 1.557-1.445c.17-.17.337-.34.504-.51.277-.28.26-.72-.114-.822-.373-.104-1.016.183-1.42.558l-1.33 1.234c-.404.376-.65.26-.615-.265s.143-1.112.36-1.313c.217-.202.15-.366-.152-.366-.3 0-.684-.19-.928-.317-.135-.07-.293-.12-.478-.146-3.982-.56-8.166-.198-12.187-.198-1.49 0-13.785-1.163-13.537 1.613l.76 8.512c.238 2.662-.14 5.525 2.936 6.335 2.924.77 6.853.05 9.903.05 1.332 0 5.048-.747 4.82 1.782-.323 3.625-2.854 4.86-5.37 4.417-.545-.096-.73-.478-.435-.755.294-.278.523-.52.51-.543-.01-.022-.264.197-.564.49-.3.295-.97.388-1.455.123-.235-.128-.463-.27-.684-.43-.45-.32-.44-.942-.035-1.317l.95-.88c.404-.375.585-.847.346-.97-.148-.077-.305-.12-.465-.12h-.298c-.165 0-.626.305-1.03.68l-.325.303c-.405.377-.917.423-1.104.08-.187-.344-.204-.73-.085-.84.118-.11.082-.18-.05-.09-.13.09-.416-.238-.906-.494-1.19-.616-3.425-.527-4.202-.16-2.452 1.157-1.366 4.57-1.178 6.677.327 3.675 6.77 4.082 9.348 4.793 2.54.7 4.32-.158 6.886-.87.178-.048.387-.097.62-.148.343-.074.438.062.213.302-.226.237-.35.415-.272.394.075-.02.324-.23.556-.462.232-.234.855-.51 1.39-.633.532-.125.795-.08.593.124-.202.204.065.25.597.102l.857-.236c.532-.147 1.275-.59 1.66-.984 1.273-1.31 2.605-2.675 3.96-4.065.386-.394.738-1.16.788-1.71l.012-.132c.05-.55-.227-.678-.615-.286-.933.938-1.848 1.86-2.75 2.77-.39.392-.646.342-.604-.116s.372-1.15.76-1.542l2.74-2.766c.39-.394.72-.89.74-1.11s-.054-.303-.163-.186c-.064.07-.13.143-.198.212l-3.11 3.298c-.38.4-.674.28-.67-.272l.002-.297c-.004-.56.3-1.334.678-1.74zm-17.333-11.6l-.228.234c-.385.396-.697.225-.338-.194.1-.117.222-.228.364-.33.45-.32.587-.105.202.29zm14.336 15.278c-.296 3.322-1.008 3.388-4.196 4.27-4.875 1.354-5.013 1.508-9.71.21-2.92-.81-5.078-1.92-5.358-5.06-.16-1.785 1.41-5.49 2.92-1.422 1.19 3.206 4.192 3.602 7.323 3.603 2.702 0 5.912-1.337 6.18-4.326.21-2.352.295-4.71-2.746-4.71h-9.31c-6.25 0-5.297-3.58-5.732-8.453-.194-2.176-1.555-5.328 1.354-5.328h16.656c.867 0 4.547-.352 4.45.743-.075.845-.152 1.69-.23 2.537-.25 2.787-17.96-3.053-19.084 3.12-1 5.497 8.963 3.737 11.966 3.737 1.067 0 6.574-.782 6.43.836-.302 3.413-.608 6.827-.912 10.242z"/><path d="M39.415 14.303c.03-.006.257-.208.505-.45.25-.244.452-.46.454-.485.002-.024-.223.178-.504.45-.28.275-.485.49-.455.485zM39.176 14.342c.084-.012.387-.253.678-.538.293-.284.533-.572.54-.644.006-.072-.298.168-.68.535-.383.37-.622.66-.538.647z"/></svg></svg>