<?xml version="1.0" encoding="iso-8859-1"?>
<!-- Generator: Adobe Illustrator 16.0.0, SVG Export Plug-In . SVG Version: 6.00 Build 0)  -->
<!DOCTYPE svg PUBLIC "-//W3C//DTD SVG 1.1//EN" "http://www.w3.org/Graphics/SVG/1.1/DTD/svg11.dtd">
<svg version="1.1" id="Capa_1" xmlns="http://www.w3.org/2000/svg" xmlns:xlink="http://www.w3.org/1999/xlink" x="0px" y="0px"
	 width="46.345px" height="46.345px" viewBox="0 0 46.345 46.345" style="enable-background:new 0 0 46.345 46.345;"
	 xml:space="preserve">
<g>
	<g>
		<path d="M30.995,0.385c-6.837,0-13.673,0-20.51,0c-2.86,0-7.461-1.001-8.146,2.755C2.328,3.201,2.348,3.244,2.354,3.295
			C3.41,15.208,4.47,27.097,5.53,38.985c0.467,5.244,7.492,5.434,11.577,6.567c6.082,1.688,10.206,0.397,16.22-1.27
			c4.637-1.286,7.096-1.958,7.547-7.015c0.646-7.233,1.292-14.468,1.938-21.701c0.283-3.162,0.565-6.323,0.848-9.485
			c0.078-0.867,0.746-3.637,0.003-4.448C41.2-1.055,34.182,0.385,30.995,0.385z M4.364,3.718C4.353,3.591,4.341,3.465,4.33,3.339
			C4.325,3.277,4.319,3.215,4.312,3.153c-0.009-0.102,0.123-0.652,0.594-0.94C5.163,2.056,5.49,1.924,5.875,1.814
			c0.531-0.152,0.661,0.104,0.274,0.498c-0.346,0.353-0.696,0.71-1.051,1.071C4.71,3.777,4.382,3.927,4.364,3.718z M5.699,5.077
			C5.563,5.217,5.427,5.356,5.29,5.496C4.903,5.89,4.897,5.886,5.285,5.491c0.137-0.14,0.274-0.28,0.41-0.419
			C6.081,4.678,6.083,4.68,5.699,5.077z M40.858,15.73c-0.646,7.233-1.292,14.466-1.938,21.7c-0.195,2.185-0.285,4.016-2.828,4.721
			c-3.486,0.967-6.974,1.934-10.461,2.9c-0.244,0.068-0.488,0.119-0.731,0.158c-0.409,0.065-1.034,0.006-1.391-0.093
			c-0.356-0.099-0.721-0.103-0.815-0.007c-0.094,0.095-0.617,0.132-1.162,0.042c-0.275-0.046-0.55-0.1-0.824-0.159
			c-0.54-0.118-0.857-0.36-0.716-0.51c0.141-0.15-0.177-0.393-0.708-0.54l-0.38-0.105c-0.532-0.147-1.081-0.153-1.225-0.015
			c-0.144,0.14-0.478,0.188-0.747,0.107c-0.163-0.048-0.326-0.095-0.489-0.14c-0.363-0.101-0.858-0.204-1.43-0.321
			c-0.541-0.11-0.842-0.339-0.673-0.509c0.169-0.169,0.11-0.359-0.13-0.427l-0.435-0.121c-0.074-0.021-0.147-0.046-0.219-0.075
			c-0.119-0.048-0.38,0.06-0.588,0.25c-0.208,0.191-0.811,0.24-1.34,0.08c-0.545-0.165-1.078-0.352-1.568-0.568
			c-0.505-0.224-0.575-0.776-0.188-1.17c0.343-0.348,0.687-0.696,1.031-1.046c0.388-0.393,0.693-0.814,0.682-0.94
			c-0.011-0.127-0.35,0.075-0.754,0.451c-0.458,0.425-0.916,0.849-1.375,1.272c-0.405,0.375-1.002,0.492-1.266,0.194
			c-0.264-0.298-0.072-0.896,0.336-1.269c0.715-0.649,1.43-1.3,2.144-1.951c0.408-0.372,0.707-1.02,0.669-1.443
			c-0.038-0.425-0.396-0.464-0.801-0.087c-0.768,0.715-1.534,1.432-2.301,2.147c-0.404,0.377-0.772,0.238-0.821-0.312
			c-0.07-0.785-0.14-1.57-0.21-2.355c-0.049-0.55-0.021-1.061,0.063-1.14c0.05-0.047,0.101-0.094,0.152-0.142
			c0.915-0.946,1.826-1.884,2.737-2.82c0.385-0.396,0.67-1.01,0.638-1.372c-0.032-0.361-0.376-0.339-0.767,0.051
			c-0.789,0.784-1.566,1.559-2.33,2.317c-0.392,0.389-0.748,0.258-0.797-0.293c-0.01-0.109-0.019-0.218-0.029-0.327
			c-0.049-0.55,0.229-1.312,0.62-1.702c0.399-0.396,0.798-0.795,1.201-1.193c0.117-0.128,0.234-0.257,0.352-0.385
			c0.194-0.212,0.03-0.074-0.367,0.31c-0.423,0.407-0.828,0.799-1.186,1.145c-0.397,0.383-0.745,0.416-0.775,0.075
			c-0.031-0.341,0.264-0.933,0.657-1.321c0.775-0.765,1.551-1.528,2.326-2.294c0.394-0.388,0.684-1.015,0.649-1.398
			c-0.034-0.386-0.373-0.376-0.758,0.02c-0.781,0.806-1.562,1.612-2.343,2.419c-0.384,0.396-0.729,0.352-0.769-0.103
			c-0.04-0.453,0.239-1.143,0.624-1.538c0.798-0.822,1.581-1.627,2.342-2.411c0.385-0.395,0.659-1.151,0.611-1.688
			s-0.406-0.657-0.799-0.269c-0.771,0.76-1.547,1.524-2.325,2.292c-0.394,0.388-0.751,0.256-0.801-0.294
			c-0.026-0.296-0.053-0.593-0.079-0.89c-0.049-0.55,0.235-1.306,0.634-1.688c0.773-0.741,1.544-1.487,2.316-2.235
			c0.396-0.385,0.702-0.865,0.684-1.072c-0.019-0.208-0.349-0.057-0.738,0.335c-0.779,0.786-1.557,1.573-2.336,2.36
			c-0.388,0.393-0.743,0.265-0.792-0.285c-0.017-0.189-0.034-0.379-0.051-0.568c-0.049-0.55,0.225-1.316,0.611-1.71
			c0.782-0.797,1.561-1.589,2.338-2.379c0.387-0.393,0.677-0.991,0.646-1.334c-0.031-0.344-0.378-0.311-0.775,0.074
			c-0.669,0.647-1.451,1.404-2.318,2.244c-0.397,0.384-0.403,0.377-0.012-0.013c0.798-0.797,1.6-1.583,2.327-2.29
			c0.396-0.385,0.39-0.39-0.01-0.009c-0.755,0.72-1.526,1.467-2.314,2.233c-0.396,0.385-0.753,0.293-0.797-0.206
			s0.241-1.216,0.636-1.601c0.765-0.745,1.538-1.497,2.321-2.26c0.396-0.385,0.686-1.031,0.65-1.443
			c-0.037-0.412-0.383-0.431-0.775-0.042c-0.777,0.771-1.553,1.542-2.329,2.312c-0.392,0.389-0.75,0.26-0.799-0.291
			c-0.006-0.076-0.013-0.153-0.02-0.229c-0.049-0.55,0.234-1.306,0.633-1.688c0.784-0.752,1.555-1.492,2.315-2.219
			c0.398-0.382,0.72-0.708,0.719-0.729C8.814,7.886,8.49,8.179,8.091,8.561c-0.749,0.718-1.521,1.459-2.314,2.22
			c-0.398,0.382-0.754,0.323-0.795-0.134C4.941,10.19,5.232,9.51,5.63,9.127c0.777-0.746,1.549-1.485,2.314-2.218
			c0.399-0.382,0.717-0.748,0.711-0.818C8.649,6.022,8.329,6.283,7.941,6.677c-0.756,0.767-1.536,1.56-2.337,2.379
			c-0.386,0.395-0.74,0.269-0.789-0.28C4.769,8.263,4.724,7.751,4.678,7.238c-0.049-0.55,0.225-1.316,0.611-1.711
			c0.827-0.844,1.652-1.685,2.477-2.526c0.387-0.394,0.776-0.978,0.977-1.239c0.2-0.26,0.88-0.425,1.433-0.438
			c4.301-0.107,9.591,0.428,10.875,0.428c6.478,0,12.955,0,19.433,0C43.398,1.751,41.006,14.078,40.858,15.73z"/>
		<path d="M35.735,27.634c1.022-1.097,2.038-2.186,3.039-3.26c0.376-0.404,0.715-1.099,0.755-1.551s-0.246-0.503-0.639-0.115
			c-1.018,1.007-2.041,2.022-3.07,3.044c-0.393,0.39-0.664,0.258-0.573-0.287c0.233-1.379,0.638-3.154,0.576-4.519
			c-0.024-0.552-0.069-1.088,0.056-1.207c0.125-0.118,0.17-0.209,0.098-0.209c-0.073,0-0.193,0.059-0.27,0.132
			c-0.076,0.073-0.331-0.315-0.818-0.573c-1.022-0.54-2.72-0.222-3.768-0.222c-2.596,0-5.191,0-7.789,0c-0.21,0-0.421,0-0.631,0
			c-0.349,0-0.693-0.057-0.768-0.129c-0.075-0.072-0.188-0.08-0.266-0.005c-0.078,0.075-0.388,0.135-0.694,0.135
			c-0.185,0-0.369,0-0.554,0c-0.549,0-1.021-0.078-1.417-0.21c-0.524-0.174-0.56-0.781-0.167-1.168
			c0.563-0.556,1.126-1.111,1.69-1.667c0.393-0.388,1.16-0.681,1.71-0.643c3.382,0.234,9.612,0.872,12.508-0.292
			c0.512-0.206,0.908-0.486,0.956-0.486s0.414-0.305,0.817-0.681c0.5-0.466,1.002-0.933,1.502-1.398l1.557-1.446
			c0.169-0.171,0.337-0.341,0.504-0.51c0.278-0.281,0.26-0.719-0.113-0.822c-0.373-0.104-1.016,0.183-1.42,0.558
			c-0.443,0.412-0.887,0.823-1.33,1.234c-0.404,0.376-0.65,0.26-0.615-0.265s0.142-1.112,0.358-1.313
			c0.218-0.201,0.15-0.365-0.151-0.365c-0.301,0-0.684-0.189-0.928-0.317c-0.135-0.07-0.293-0.121-0.478-0.146
			C31.42,8.37,27.236,8.732,23.215,8.732c-1.489,0-13.785-1.163-13.537,1.613c0.253,2.837,0.506,5.675,0.76,8.512
			c0.238,2.662-0.141,5.525,2.936,6.335c2.924,0.77,6.853,0.05,9.903,0.05c1.332,0,5.048-0.747,4.821,1.782
			c-0.324,3.625-2.855,4.859-5.372,4.417c-0.544-0.097-0.728-0.479-0.434-0.756c0.294-0.278,0.523-0.521,0.511-0.543
			c-0.012-0.022-0.265,0.197-0.565,0.491c-0.301,0.294-0.97,0.387-1.455,0.122c-0.235-0.128-0.463-0.271-0.684-0.429
			c-0.45-0.32-0.439-0.943-0.034-1.318c0.316-0.293,0.633-0.586,0.949-0.88c0.405-0.375,0.586-0.847,0.347-0.97
			c-0.149-0.077-0.306-0.119-0.466-0.119c-0.103,0-0.203,0-0.298,0c-0.165,0-0.626,0.304-1.031,0.68
			c-0.108,0.102-0.216,0.201-0.324,0.302c-0.405,0.376-0.917,0.422-1.104,0.079c-0.187-0.344-0.204-0.729-0.085-0.84
			c0.118-0.109,0.082-0.179-0.05-0.09c-0.131,0.089-0.416-0.238-0.906-0.494c-1.19-0.616-3.425-0.527-4.202-0.16
			c-2.452,1.157-1.366,4.569-1.178,6.677c0.327,3.675,6.769,4.082,9.348,4.793c2.539,0.701,4.32-0.158,6.886-0.869
			c0.177-0.049,0.386-0.098,0.619-0.149c0.343-0.074,0.438,0.062,0.213,0.302c-0.226,0.237-0.349,0.415-0.272,0.394
			c0.074-0.021,0.323-0.229,0.555-0.462c0.232-0.234,0.855-0.51,1.389-0.633c0.533-0.124,0.796-0.079,0.594,0.125
			c-0.201,0.204,0.066,0.249,0.598,0.102l0.857-0.236c0.532-0.147,1.275-0.589,1.661-0.984c1.272-1.309,2.604-2.675,3.959-4.065
			c0.386-0.395,0.738-1.162,0.788-1.712l0.012-0.131c0.049-0.55-0.227-0.678-0.615-0.286c-0.932,0.938-1.847,1.86-2.75,2.77
			c-0.389,0.392-0.645,0.342-0.603-0.116s0.372-1.149,0.761-1.542c0.939-0.948,1.857-1.875,2.739-2.766
			c0.39-0.394,0.72-0.89,0.739-1.109s-0.053-0.304-0.162-0.187c-0.064,0.071-0.131,0.143-0.198,0.212
			c-1.062,1.126-2.095,2.222-3.11,3.298c-0.379,0.4-0.674,0.279-0.67-0.272c0-0.1,0.002-0.198,0.002-0.297
			C35.053,28.814,35.358,28.039,35.735,27.634z M18.402,16.034c-0.076,0.078-0.152,0.156-0.228,0.234
			c-0.385,0.396-0.697,0.225-0.338-0.194c0.1-0.117,0.222-0.228,0.364-0.33C18.65,15.423,18.787,15.639,18.402,16.034z
			 M32.738,31.312c-0.296,3.322-1.008,3.388-4.196,4.271c-4.875,1.353-5.013,1.507-9.711,0.208
			c-2.918-0.808-5.077-1.919-5.357-5.058c-0.159-1.786,1.411-5.492,2.921-1.423c1.189,3.206,4.191,3.602,7.322,3.603
			c2.702,0.001,5.912-1.337,6.18-4.326c0.211-2.352,0.295-4.71-2.746-4.71c-3.104,0-6.207,0-9.31,0c-6.251,0-5.298-3.58-5.733-8.453
			c-0.194-2.176-1.555-5.328,1.354-5.328c3.189,0,6.378,0,9.566,0c2.363,0,4.726,0,7.089,0c0.868,0,4.548-0.352,4.451,0.743
			c-0.075,0.846-0.152,1.691-0.229,2.538c-0.25,2.787-17.962-3.053-19.085,3.119c-1.001,5.498,8.963,3.738,11.966,3.738
			c1.067,0,6.574-0.782,6.43,0.836C33.348,24.483,33.042,27.897,32.738,31.312z"/>
		<path d="M39.415,14.303c0.03-0.006,0.257-0.208,0.505-0.451c0.249-0.243,0.452-0.459,0.454-0.484
			c0.002-0.024-0.223,0.178-0.504,0.451C39.59,14.093,39.385,14.309,39.415,14.303z"/>
		<path d="M39.176,14.342c0.084-0.012,0.387-0.253,0.678-0.538c0.293-0.284,0.533-0.572,0.539-0.644
			c0.007-0.072-0.297,0.168-0.68,0.535C39.331,14.064,39.092,14.355,39.176,14.342z"/>
	</g>
</g>
<g>
</g>
<g>
</g>
<g>
</g>
<g>
</g>
<g>
</g>
<g>
</g>
<g>
</g>
<g>
</g>
<g>
</g>
<g>
</g>
<g>
</g>
<g>
</g>
<g>
</g>
<g>
</g>
<g>
</g>
</svg>
